<svg width="1024" height="1024" xmlns="http://www.w3.org/2000/svg" p-id="26778" version="1.1" class="icon" t="1768456709191">

 <g>
  <title>Layer 1</title>
  <g stroke="null" fill="#155dff">
   <g stroke="null">
    <title stroke="null">Layer 1</title>
    <path stroke="null" id="svg_2" p-id="11946" fill="#155dff" d="m298.47274,178.99997l-90.35453,-27.10636l-30.11819,-93.36636l-28.61227,91.86045l-91.86045,28.61227l88.84862,24.09455l31.62409,96.37818l31.62409,-96.37818l88.84864,-24.09455z"/>
   </g>
  </g>
  <g>
   <path fill="#155dff" p-id="26779" d="m639.74449,60.86401c189.9,56.96 328.294,233.037 328.294,441.472c0,254.49 -206.31,460.8 -460.8,460.8c-222.413,0 -408.013,-157.568 -451.277,-367.13a433.485,433.485 0 0 0 169.677,34.33c240.358,0 435.2,-194.842 435.2,-435.2c0,-44.211 -6.58,-86.86 -18.842,-127.053l-2.252,-7.219z"/>
  </g>
  <g stroke="null">
   <g stroke="null">
    <title stroke="null">Layer 1</title>
    <path stroke="null" id="svg_31" p-id="11946" fill="#155dff" d="m371.47275,293.49998l-26.22954,-7.86886l-8.74319,-27.10386l-8.30602,26.6667l-26.6667,8.30602l25.79239,6.99455l9.18034,27.97818l9.18034,-27.97818l25.79239,-6.99455z"/>
   </g>
  </g>
  <g>
   <g>
    <title>Layer 1</title>
    <path id="svg_32" p-id="11946" fill="#155dff" d="m251.47274,488.99998l-55.85454,-16.75636l-18.61819,-57.71636l-17.68727,56.78545l-56.78545,17.68727l54.92363,14.89455l19.54909,59.57818l19.54909,-59.57818l54.92364,-14.89455z"/>
   </g>
  </g>
  <g stroke="null">
   <g stroke="null">
    <title stroke="null">Layer 1</title>
    <path stroke="null" id="svg_33" p-id="11946" fill="#155dff" d="m563.47274,179.49998l-47.97954,-14.39386l-15.99319,-49.57886l-15.19352,48.7792l-48.7792,15.19352l47.17988,12.79455l16.79284,51.17818l16.79284,-51.17818l47.17989,-12.79455z"/>
   </g>
  </g>
  <g stroke="null">
   <g stroke="null">
    <title stroke="null">Layer 1</title>
    <path stroke="null" id="svg_34" p-id="11946" fill="#155dff" d="m490.47276,424.99998l-45.35454,-13.60636l-15.11819,-46.86636l-14.36227,46.11045l-46.11045,14.36227l44.59863,12.09455l15.87409,48.37818l15.87409,-48.37818l44.59864,-12.09455z"/>
   </g>
  </g>
 </g>
</svg>